<svg aria-hidden="true" style="position: absolute; width: 0; height: 0; overflow: hidden;" version="1.1" xmlns="http://www.w3.org/2000/svg" xmlns:xlink="http://www.w3.org/1999/xlink">
<defs>
<symbol id="icon-arrow-choice-hero" viewBox="0 0 53 32">
<path d="M8.096 1.456l15.237 15.515c0.833 0.895 2.018 1.453 3.333 1.453s2.5-0.558 3.331-1.451l0.003-0.003 15.237-15.52c0.833-0.895 2.018-1.453 3.333-1.453s2.5 0.558 3.331 1.451l0.003 0.003c0.882 0.863 1.429 2.065 1.429 3.395s-0.547 2.532-1.428 3.394l-0.001 0.001-21.904 22.304c-0.833 0.895-2.018 1.453-3.333 1.453s-2.5-0.558-3.331-1.451l-0.003-0.003-21.904-22.304c-0.88-0.862-1.426-2.063-1.426-3.392s0.546-2.53 1.425-3.391l0.001-0.001c0.833-0.895 2.018-1.453 3.333-1.453s2.5 0.558 3.331 1.451l0.003 0.003z"></path>
</symbol>
</defs>
</svg>
